<mxfile host="app.diagrams.net" modified="2023-11-10T15:26:52.252Z" agent="Mozilla/5.0 (Macintosh; Intel Mac OS X 10_15_7) AppleWebKit/537.36 (KHTML, like Gecko) Chrome/119.0.0.0 Safari/537.36" etag="xnkewj1F8rMl_nWMkBMU" version="22.0.8" type="device">
  <diagram name="Page-1" id="8s2QnQ6a8ActkmSFCfRt">
    <mxGraphModel dx="1112" dy="720" grid="1" gridSize="10" guides="1" tooltips="1" connect="1" arrows="1" fold="1" page="1" pageScale="1" pageWidth="827" pageHeight="1169" math="0" shadow="0">
      <root>
        <mxCell id="0" />
        <mxCell id="1" parent="0" />
        <mxCell id="i4jzqmyOAendu9d0QUgd-5" style="edgeStyle=orthogonalEdgeStyle;rounded=0;orthogonalLoop=1;jettySize=auto;html=1;entryX=0;entryY=0.5;entryDx=0;entryDy=0;" parent="1" source="i4jzqmyOAendu9d0QUgd-1" target="i4jzqmyOAendu9d0QUgd-2" edge="1">
          <mxGeometry relative="1" as="geometry" />
        </mxCell>
        <mxCell id="i4jzqmyOAendu9d0QUgd-1" value="81" style="ellipse;whiteSpace=wrap;html=1;aspect=fixed;" parent="1" vertex="1">
          <mxGeometry x="160" y="120" width="40" height="40" as="geometry" />
        </mxCell>
        <mxCell id="i4jzqmyOAendu9d0QUgd-2" value="14" style="ellipse;whiteSpace=wrap;html=1;aspect=fixed;" parent="1" vertex="1">
          <mxGeometry x="360" y="120" width="40" height="40" as="geometry" />
        </mxCell>
        <mxCell id="i4jzqmyOAendu9d0QUgd-10" style="edgeStyle=orthogonalEdgeStyle;rounded=0;orthogonalLoop=1;jettySize=auto;html=1;exitX=1;exitY=0.5;exitDx=0;exitDy=0;entryX=0;entryY=0.5;entryDx=0;entryDy=0;" parent="1" source="i4jzqmyOAendu9d0QUgd-3" target="i4jzqmyOAendu9d0QUgd-6" edge="1">
          <mxGeometry relative="1" as="geometry" />
        </mxCell>
        <mxCell id="i4jzqmyOAendu9d0QUgd-3" value="14" style="ellipse;whiteSpace=wrap;html=1;aspect=fixed;" parent="1" vertex="1">
          <mxGeometry x="200" y="180" width="40" height="40" as="geometry" />
        </mxCell>
        <mxCell id="i4jzqmyOAendu9d0QUgd-4" value="81" style="ellipse;whiteSpace=wrap;html=1;aspect=fixed;" parent="1" vertex="1">
          <mxGeometry x="160" y="180" width="40" height="40" as="geometry" />
        </mxCell>
        <mxCell id="i4jzqmyOAendu9d0QUgd-6" value="&lt;pre style=&quot;box-sizing: unset; font-family: var(--jp-code-font-family); font-size: var(--jp-code-font-size); line-height: var(--jp-code-line-height); color: var(--jp-content-font-color1); border: none; margin-top: 0px; margin-bottom: 0px; padding: 0px; overflow: auto; word-break: break-all; overflow-wrap: break-word; text-align: left; background-color: rgb(255, 255, 255);&quot;&gt;3&lt;/pre&gt;" style="ellipse;whiteSpace=wrap;html=1;aspect=fixed;" parent="1" vertex="1">
          <mxGeometry x="360" y="180" width="40" height="40" as="geometry" />
        </mxCell>
        <mxCell id="i4jzqmyOAendu9d0QUgd-7" value="14" style="ellipse;whiteSpace=wrap;html=1;aspect=fixed;" parent="1" vertex="1">
          <mxGeometry x="200" y="240" width="40" height="40" as="geometry" />
        </mxCell>
        <mxCell id="i4jzqmyOAendu9d0QUgd-8" value="81" style="ellipse;whiteSpace=wrap;html=1;aspect=fixed;" parent="1" vertex="1">
          <mxGeometry x="160" y="240" width="40" height="40" as="geometry" />
        </mxCell>
        <mxCell id="i4jzqmyOAendu9d0QUgd-12" style="edgeStyle=orthogonalEdgeStyle;rounded=0;orthogonalLoop=1;jettySize=auto;html=1;entryX=0;entryY=0.5;entryDx=0;entryDy=0;" parent="1" source="i4jzqmyOAendu9d0QUgd-9" target="i4jzqmyOAendu9d0QUgd-11" edge="1">
          <mxGeometry relative="1" as="geometry" />
        </mxCell>
        <mxCell id="i4jzqmyOAendu9d0QUgd-9" value="&lt;pre style=&quot;box-sizing: unset; font-family: var(--jp-code-font-family); font-size: var(--jp-code-font-size); line-height: var(--jp-code-line-height); color: var(--jp-content-font-color1); border: none; margin-top: 0px; margin-bottom: 0px; padding: 0px; overflow: auto; word-break: break-all; overflow-wrap: break-word; text-align: left; background-color: rgb(255, 255, 255);&quot;&gt;3&lt;/pre&gt;" style="ellipse;whiteSpace=wrap;html=1;aspect=fixed;" parent="1" vertex="1">
          <mxGeometry x="240" y="240" width="40" height="40" as="geometry" />
        </mxCell>
        <mxCell id="i4jzqmyOAendu9d0QUgd-11" value="&lt;pre style=&quot;box-sizing: unset; font-family: var(--jp-code-font-family); font-size: var(--jp-code-font-size); line-height: var(--jp-code-line-height); color: var(--jp-content-font-color1); border: none; margin-top: 0px; margin-bottom: 0px; padding: 0px; overflow: auto; word-break: break-all; overflow-wrap: break-word; text-align: left; background-color: rgb(255, 255, 255);&quot;&gt;94&lt;/pre&gt;" style="ellipse;whiteSpace=wrap;html=1;aspect=fixed;" parent="1" vertex="1">
          <mxGeometry x="360" y="240" width="40" height="40" as="geometry" />
        </mxCell>
      </root>
    </mxGraphModel>
  </diagram>
</mxfile>
